<?xml version="1.0" encoding="UTF-8" standalone="no"?>
<svg width="40px" height="28px" viewBox="0 0 40 28" version="1.1" xmlns="http://www.w3.org/2000/svg" xmlns:xlink="http://www.w3.org/1999/xlink">
    <!-- Generator: Sketch 39.1 (31720) - http://www.bohemiancoding.com/sketch -->
    <title>pepperoni</title>
    <desc>Created with Sketch.</desc>
    <defs></defs>
    <g id="Page-1" stroke="none" stroke-width="1" fill="none" fill-rule="evenodd">
        <path d="M1.47392917,0.335834969 L1.61347138,0.709823494 L1.3338603,0.827917737 L1.33358236,0.946509856 C1.33358236,0.946509856 1.70237561,1.40526063 1.41780454,1.73023907 C1.41780454,1.73023907 1.80749835,2.31437721 2.30921273,3.11951764 C3.56266952,5.13103812 5.01459846,7.86782748 6.08801185,8.85652226 C6.50180157,9.23765384 7.24749505,9.76112788 7.24749505,9.76112788 L7.77255906,9.75726595 L8.26344214,9.88425608 L8.61054507,10.166911 L8.84141703,10.6021498 L9.20390616,10.9411215 L10.4375322,11.8574745 L10.9807523,12.738658 L11.2996491,13.0268614 L11.460087,13.3537125 L11.7633601,13.5824517 L12.1463303,14.2520579 L12.5518578,14.6524186 L12.5991903,14.9445699 L12.7967326,15.0481647 L13.2690582,16.1122777 L13.6763668,16.3973422 L14.1147992,16.8577417 L14.4981766,17.1265299 L14.955695,17.6444076 L15.3996448,18.2392289 L15.890125,18.517961 L16.4985502,19.1018679 L16.9603826,19.6492235 L17.9517514,20.5826613 L18.3161566,20.5743953 L19.894756,21.0644313 L20.9281356,21.1713455 L21.7089495,21.3379087 L22.2645594,21.6191804 C22.2645594,21.6191804 22.5337334,21.5117556 22.6267842,21.5382933 C22.719835,21.5648311 23.3143567,21.5424426 23.3143567,21.5424426 L24.5997444,21.5611952 L26.0955633,21.8419427 L27.0947425,22.1783043 L27.8359025,21.7772098 L28.3864508,21.6471306 L28.6711714,21.4460696 L29.3901838,21.4905657 L30.0661736,21.4908275 L31.4438784,21.4993251 L32.783781,21.2892737 C32.783781,21.2892737 33.587892,21.3393765 35.5804793,20.9354289 C37.5730667,20.5314814 38.2239324,19.6316752 39.3608804,19.9559304 C40.6852009,20.3336239 37.6902256,22.4609088 35.9963787,23.7323526 C34.3025319,25.0037965 31.599116,25.7821052 31.599116,25.7821052 L31.3290336,26.1007026 L31.0764251,26.2217723 L30.2838143,26.4196994 L29.566139,26.5178842 L28.8379275,26.5977721 L28.3935772,26.6352197 L27.6357149,26.74212 L27.2388652,26.7747962 L26.5442328,26.9190037 L26.2337023,27.0265276 L25.2453068,27.1845464 L24.6549459,27.3710227 L24.1837015,27.4639323 L23.7313345,27.4471117 L23.2067597,27.6535182 L21.8791975,27.2623163 L21.5189079,27.0414751 L20.810418,26.9816616 L19.8759646,26.8285191 L19.1268673,26.5328436 L18.2131729,26.2297824 L17.107567,25.7302199 L15.8605366,24.9641841 L15.0240861,24.4941811 L14.2063539,24.1381526 L13.7864079,23.6977863 L13.232188,23.3235668 L11.9507208,22.8208928 L11.0931261,21.9953232 L10.7544722,21.7104054 L9.87421989,21.5544026 L8.83647483,20.6785695 L8.60278833,20.1365998 L8.38760522,19.9618153 L7.97564641,19.6660263 L7.43006256,19.3923396 L7.32490451,19.0842276 L6.86307014,18.6944098 L6.2527533,18.0289376 L5.69533352,17.379879 L5.20967551,16.599536 L5.03310694,16.3749684 L4.71963045,16.0363822 L4.60500659,15.7650746 L4.42366408,15.165981 L4.23109604,14.6729591 L4.23177919,14.1700085 L4.38498204,13.63861 L4.10974248,13.0853205 L4.08577973,12.7141891 L3.78359686,12.5907863 L3.61127282,12.25051 L3.87239961,11.4625843 L4.23060384,10.5544702 L4.32737684,9.96444752 L4.24287886,9.01449965 L3.76590692,7.75185995 L3.12859293,6.25489113 L2.36676968,5.06573656 L1.57863355,3.78460056 L1.17629206,3.01198402 L0.609764787,2.01610132 L0.247089883,1.51173311 L0.198883374,1.14658997 L5.68434189e-14,0.726155638 L0.0277709996,0.429937295 L0.174533811,0.0702756066 L0.809850214,0 L1.47392917,0.335834969 Z" id="Path" fill="#3F7087"></path>
    </g>
</svg>