<svg width="40px" height="28px" viewBox="157 540 40 28" version="1.1" xmlns="http://www.w3.org/2000/svg" xmlns:xlink="http://www.w3.org/1999/xlink">
<defs></defs>
<path d="M157.80985,540 L158.473929,540.335835 L158.613471,540.709823 L158.33386,540.827918 L158.333582,540.94651 C158.333582,540.94651 158.702376,541.405261 158.417805,541.730239 C158.417805,541.730239 158.807498,542.314377 159.309213,543.119518 C160.56267,545.131038 162.014598,547.867827 163.088012,548.856522 C163.501802,549.237654 164.247495,549.761128 164.247495,549.761128 L164.772559,549.757266 L165.263442,549.884<t_CO> L165.610545,550.166911 L165.841417,550.60215 L166.203906,550.941122 L167.437532,551.857474 L167.980752,552.738658 L168.299649,553.026861 L168.460087,553.353713 L168.76336,553.582452 L169.14633,554.252058 L169.551858,554.652419 L169.59919,554.94457 L169.796733,555.048165 L170.269058,556.112278 L170.676367,556.397342 L171.114799,556.857742 L171.498177,557.12653 L171.955695,557.644408 L172.399645,558.239229 L172.890125,558.517961 L173.49855,559.101868 L173.960383,559.649223 L174.951751,560.582661 L175.316157,560.574395 L176.894756,561.064431 L177.928136,561.171346 L178.708949,561.337909 L179.264559,561.61918 C179.264559,561.61918 179.533733,561.511756 179.626784,561.538293 C179.719835,561.564831 180.314357,561.542443 180.314357,561.542443 L181.599744,561.561195 L183.095563,561.841943 L184.094742,562.178304 L184.835902,561.77721 L185.386451,561.647131 L185.671171,561.44607 L186.390184,561.490566 L187.066174,561.490828 L188.443878,561.499325 L189.783781,561.289274 C189.783781,561.289274 190.587892,561.339376 192.580479,560.935429 C194.573067,560.531481 195.223932,559.631675 196.36088,559.95593 C197.685201,560.333624 194.690226,562.460909 192.996379,563.732353 C191.302532,565.003796 188.599116,565.782105 188.599116,565.782105 L188.329034,566.100703 L188.076425,566.221772 L187.283814,566.419699 L186.566139,566.517884 L185.837927,566.597772 L185.393577,566.63522 L184.635715,566.74212 L184.238865,566.774796 L183.544233,566.919004 L183.233702,567.026528 L182.245307,567.184546 L181.654946,567.371023 L181.183702,567.463932 L180.731335,567.447112 L180.20676,567.653518 L178.879198,567.262316 L178.518908,567.041475 L177.810418,566.981662 L176.875965,566.828519 L176.126867,566.532844 L175.213173,566.229782 L174.107567,565.73022 L172.860537,564.964184 L172.024086,564.494181 L171.206354,564.138153 L170.786408,563.697786 L170.232188,563.323567 L168.950721,562.820893 L168.093126,561.995323 L167.754472,561.710405 L166.87422,561.554403 L165.836475,560.678569 L165.602788,560.1366 L165.387605,559.961815 L164.975646,559.666026 L164.430063,559.39234 L164.324905,559.084228 L163.86307,558.69441 L163.252753,558.028938 L162.695334,557.379879 L162.209676,556.599536 L162.033107,556.374968 L161.71963,556.036382 L161.605007,555.765075 L161.423664,555.165981 L161.231096,554.672959 L161.231779,554.170009 L161.384982,553.63861 L161.109742,553.085321 L161.08578,552.714189 L160.783597,552.590786 L160.611273,552.25051 L160.8724,551.462584 L161.230604,550.55447 L161.327377,549.964448 L161.242879,549.0145 L160.765907,547.75186 L160.128593,546.254891 L159.36677,545.065737 L158.578634,543.784601 L158.176292,543.011984 L157.609765,542.016101 L157.24709,541.511733 L157.198883,541.14659 L157,540.726156 L157.027771,540.429937 L157.174534,540.070276 L157.80985,540" id="Path" stroke="none" fill="#3F7087" fill-rule="evenodd"></path>
</svg>
